<?xml version="1.0" encoding="UTF-8"?>
<svg version="1.1" xmlns="http://www.w3.org/2000/svg" width="1024" height="1024">
<path d="M0 0 C337.92 0 675.84 0 1024 0 C1024 337.92 1024 675.84 1024 1024 C686.08 1024 348.16 1024 0 1024 C0 686.08 0 348.16 0 0 Z " fill="#010A1A" transform="translate(0,0)"/>
<path d="M0 0 C1.25224365 0.00303635 1.25224365 0.00303635 2.52978516 0.00613403 C3.40453995 0.00438171 4.27929474 0.00262939 5.18055725 0.00082397 C8.08743239 -0.00359623 10.99424723 -0.00065571 13.90112305 0.00271606 C15.91272493 0.00204301 17.92432674 0.00107298 19.93592834 -0.00018311 C24.15862805 -0.00166036 28.38130665 0.00049513 32.60400391 0.00515747 C38.02608644 0.01085112 43.44811945 0.00757823 48.87020016 0.00158501 C53.02649816 -0.00202298 57.18278436 -0.00088085 61.33908272 0.0017128 C63.338639 0.0023816 65.33819634 0.00155528 67.33775139 -0.00076675 C70.12965623 -0.00329676 72.92148012 0.00055245 75.71337891 0.00613403 C76.54618378 0.0041098 77.37898865 0.00208557 78.23703003 0 C83.95775288 0.02126536 83.95775288 0.02126536 86.1862793 1.13552856 C86.5162793 55.91552856 86.8462793 110.69552856 87.1862793 167.13552856 C93.73103515 159.80451157 93.73103515 159.80451157 99.8112793 152.19802856 C100.65959107 151.08035004 101.50859052 149.96319322 102.3581543 148.84646606 C102.80868164 148.25317505 103.25920898 147.65988403 103.72338867 147.0486145 C105.8851559 144.22157712 108.0786894 141.41965587 110.27001953 138.61550903 C115.83027627 131.49941107 121.31863896 124.3368886 126.72143555 117.10061646 C138.46266296 101.38158233 150.38406785 85.76274978 162.72290039 70.50735474 C167.69765147 64.35655723 172.46467721 58.09173247 177.1237793 51.69802856 C182.01285925 44.99072346 187.06342321 38.47254828 192.34863281 32.07351685 C196.93796776 26.50130341 201.3149876 20.78236187 205.61035156 14.98074341 C215.07891043 2.36930469 215.07891043 2.36930469 222.1862793 0.13552856 C225.13114983 -0.14281581 228.05959863 -0.11733052 231.015625 -0.09152222 C231.89417648 -0.09181427 232.77272797 -0.09210632 233.67790222 -0.09240723 C236.57272322 -0.09101738 239.46728468 -0.07547239 242.36206055 -0.05978394 C244.37273518 -0.05605258 246.38341164 -0.05320619 248.39408875 -0.0512085 C253.67950483 -0.04358171 258.96481055 -0.02394136 264.25018311 -0.00180054 C269.64618436 0.01867842 275.04220349 0.02779761 280.43823242 0.03787231 C291.02096313 0.05930538 301.60361203 0.09342987 312.1862793 0.13552856 C313.33114624 4.81903076 313.33114624 4.81903076 312.02734375 7.66751099 C311.43655029 8.53738647 310.84575684 9.40726196 310.23706055 10.30349731 C309.58688965 11.26562134 308.93671875 12.22774536 308.2668457 13.21902466 C305.06530262 17.70689531 301.75990078 22.09813328 298.3737793 26.44802856 C293.80016487 32.38418585 289.25248909 38.32141853 284.9362793 44.44802856 C279.96104398 51.50604216 274.77866575 58.40101777 269.57641602 65.29275513 C267.60744935 67.90282896 265.64681456 70.51911803 263.6862793 73.13552856 C261.2786826 76.34709831 258.86932975 79.55731493 256.45581055 82.76443481 C251.07438268 89.92072327 245.732759 97.10361359 240.4362793 104.32302856 C235.34698258 111.25851939 230.16742538 118.11898947 224.9362793 124.94802856 C220.04975893 131.32742674 215.25549153 137.7487775 210.6262207 144.31692505 C207.55025192 148.66774225 204.33658558 152.9003553 201.07104492 157.10891724 C197.77576653 161.35765506 194.53330244 165.64349725 191.3112793 169.94802856 C190.80798096 170.62019409 190.30468262 171.29235962 189.78613281 171.9848938 C187.75424184 174.70001257 185.72387658 177.41627018 183.69360352 180.13259888 C182.2127264 182.11329034 180.73098853 184.09333379 179.2487793 186.07302856 C178.75869385 186.72803345 178.2686084 187.38303833 177.76367188 188.05789185 C174.59819145 192.27956335 171.39488667 196.47019925 168.17333984 200.64920044 C158.35735581 212.85616324 158.35735581 212.85616324 150.1862793 226.13552856 C150.99967773 226.11232544 151.81307617 226.08912231 152.65112305 226.06521606 C159.16065462 225.96270376 165.23952042 226.20425719 171.6862793 227.13552856 C179.3618386 228.17553227 187.04263106 228.41969934 194.78076172 228.49002075 C196.77612939 228.51017356 198.77127717 228.54924457 200.76635742 228.58865356 C211.23662509 228.61034236 215.86710905 226.60952549 223.5612793 219.44802856 C224.41463867 218.66041138 225.26799805 217.87279419 226.1472168 217.06130981 C227.16952864 216.09579307 228.19195941 215.12984845 229.1862793 214.13552856 C247.41973037 212.96880476 247.41973037 212.96880476 252.85424805 217.53787231 C256.3553421 221.73713175 256.65480013 226.88809518 256.1862793 232.13552856 C251.03404505 244.37829739 237.87258026 253.65305805 226.38549805 259.58084106 C210.48440721 265.73471384 191.01799539 262.62709967 174.76220703 259.57473755 C161.27562007 257.10476131 148.32447514 256.83542268 135.1862793 261.13552856 C133.10338336 261.78277116 131.02003006 262.42854331 128.9362793 263.07302856 C127.86506836 263.41463013 126.79385742 263.75623169 125.69018555 264.10818481 C123.14761272 264.85366603 120.6693811 265.50023583 118.08862305 266.06912231 C107.48113988 268.41337855 99.94038313 271.45312284 93.65983963 280.74048805 C87.33021437 291.02829818 86.46287885 300.52659342 86.54272461 312.25515747 C86.53589588 313.94825216 86.52686652 315.64133917 86.51582336 317.33441162 C86.49209072 321.89582832 86.4984875 326.4567526 86.51031208 331.01819658 C86.51719366 335.80056278 86.49501735 340.58279263 86.47576904 345.3651123 C86.44355951 354.40760438 86.4356503 363.4499368 86.43734336 372.49247968 C86.4388086 385.7891658 86.40529409 399.08577501 86.36960983 412.38240623 C86.36438538 414.34262466 86.35916304 416.30284309 86.35394287 418.26306152 C86.35133792 419.21962123 86.34873296 420.17618094 86.34604907 421.16172731 C86.3313949 426.85464552 86.32446597 432.54750867 86.32429457 438.24044538 C86.32364949 441.7695634 86.31930892 445.29867123 86.31432152 448.82778549 C86.31295602 450.4685384 86.31334127 452.10929381 86.31556892 453.75004578 C86.31845999 455.98205516 86.31537678 458.21397912 86.31085205 460.44598389 C86.31089359 461.69694162 86.31093513 462.94789936 86.31097794 464.23676491 C86.1862793 467.13552856 86.1862793 467.13552856 85.1862793 469.13552856 C73.33862757 469.15865059 61.49098116 469.17644293 49.6433115 469.18734074 C44.14257068 469.19256987 38.64184525 469.19966807 33.14111328 469.21096802 C27.83731369 469.22179581 22.53352894 469.22780517 17.22971916 469.23040581 C15.20142317 469.23226025 13.17312804 469.23588123 11.14483833 469.24125862 C8.31431416 469.24846762 5.48385211 469.24951957 2.65332031 469.24905396 C1.80599838 469.25264923 0.95867645 469.25624451 0.0856781 469.25994873 C-5.69966854 469.24958073 -5.69966854 469.24958073 -6.8137207 468.13552856 C-6.91344916 465.65525648 -6.9473441 463.20278698 -6.93956184 460.72196198 C-6.94101528 459.93263722 -6.94246873 459.14331246 -6.94396621 458.33006877 C-6.94765302 455.65098616 -6.94412747 452.97195951 -6.94070435 450.2928772 C-6.94185511 448.36644476 -6.94344233 446.44001255 -6.94543159 444.5135808 C-6.9496311 439.1932299 -6.94753144 433.87289678 -6.94444537 428.55254579 C-6.942194 422.82515479 -6.94566956 417.09776697 -6.94842529 411.37037659 C-6.95288482 400.13988914 -6.95190572 388.90940835 -6.94901265 377.67892063 C-6.94675933 368.55614408 -6.94644579 359.4333694 -6.94753647 350.31059265 C-6.9476897 349.01492317 -6.94784293 347.71925368 -6.94800081 346.38432148 C-6.94832052 343.75264974 -6.94864473 341.12097801 -6.9489734 338.48930627 C-6.95174724 314.48517596 -6.94886486 290.48104927 -6.94363081 266.47691954 C-6.93888489 244.54459846 -6.9393095 222.61228319 -6.9440918 200.67996216 C-6.94944161 176.06241938 -6.95155403 151.44488011 -6.94847953 126.82733679 C-6.94816097 124.20504602 -6.9478466 121.58275525 -6.94753647 118.96046448 C-6.94738219 117.67006068 -6.94722792 116.37965689 -6.94706897 115.05014995 C-6.94620354 105.93249562 -6.94766724 96.81484334 -6.95001602 87.69718933 C-6.95281322 76.59419834 -6.95207747 65.49121442 -6.94673528 54.38822424 C-6.94409717 48.71734326 -6.94309504 43.0464741 -6.94638443 37.37559319 C-6.94934516 32.19315473 -6.94775835 27.01073915 -6.94240688 21.8283028 C-6.94128173 19.9447475 -6.941876 18.0611903 -6.94428267 16.17763621 C-6.9472847 13.63476097 -6.94424422 11.09196606 -6.93956184 8.54909515 C-6.94190301 7.80277869 -6.94424418 7.05646223 -6.94665629 6.28753012 C-6.92287615 -0.08985744 -6.31023078 0.02354423 0 0 Z " fill="#F3F3F3" transform="translate(192.813720703125,276.8644714355469)"/>
<path d="M0 0 C1.75743279 -0.00832352 1.75743279 -0.00832352 3.55036926 -0.01681519 C6.76271079 -0.02660091 9.97399732 -0.01399171 13.18623948 0.00946999 C16.57294171 0.02967604 19.95961152 0.02369285 23.34635925 0.0213623 C29.0536392 0.02141591 34.76058867 0.04115991 40.46777344 0.07324219 C47.00164884 0.10980091 53.53508629 0.11896451 60.06905061 0.11194468 C66.40525538 0.10555292 72.74131462 0.1165726 79.07748985 0.13591003 C81.74552605 0.14394079 84.41335912 0.14607466 87.08143044 0.1452179 C144.51361398 0.17319827 196.98179768 18.08622828 238.91967773 58.171875 C239.94294576 59.14950275 240.97111019 60.12202662 242.00366211 61.08984375 C283.23847078 99.84304387 304.80799341 158.78754905 306.734375 214.60449219 C306.90141567 221.85847282 306.90588299 229.1097807 306.86791992 236.36523438 C306.86421387 237.63927124 306.86050781 238.91330811 306.85668945 240.22595215 C306.7804772 258.63525197 306.50044472 276.58693663 302.43041992 294.61523438 C302.02774902 296.42701172 302.02774902 296.42701172 301.61694336 298.27539062 C292.24128674 339.10050892 274.46116357 375.29006661 245.43041992 405.61523438 C244.90464355 406.17355957 244.37886719 406.73188477 243.8371582 407.30712891 C229.82345155 422.14054425 214.24872556 432.80445582 196.43041992 442.61523438 C195.13973364 443.34252836 193.84934835 444.07035686 192.55932617 444.79882812 C161.90684232 461.88073301 128.81879866 469.7077818 93.89135742 469.85351562 C92.64583036 469.85962892 92.64583036 469.85962892 91.37514114 469.86586571 C86.98927318 469.88659235 82.60343537 469.90095763 78.2175293 469.91040039 C73.70746904 469.92150615 69.19789645 469.95599196 64.68800926 469.99557209 C61.19801955 470.02176729 57.70814653 470.03009421 54.21806717 470.03368187 C52.55557543 470.03853123 50.89308833 470.05009781 49.23069382 470.06871986 C38.27022996 470.18398645 30.53619726 469.69467074 21.89916992 462.06835938 C19.65930612 459.85232391 17.65418517 457.451867 15.61401367 455.05273438 C12.83559542 451.95124423 9.89260885 449.04012353 6.93041992 446.11523438 C2.78869216 442.02086403 -1.19235094 437.8817487 -4.96411133 433.43945312 C-6.75268635 431.40717931 -8.6407676 429.51465542 -10.56958008 427.61523438 C-13.79626488 424.43198571 -16.82117703 421.14237351 -19.76098633 417.69335938 C-21.0667174 416.19303771 -22.41352329 414.72812652 -23.78442383 413.28710938 C-24.51790039 412.50851562 -25.25137695 411.72992187 -26.00708008 410.92773438 C-26.68641602 410.22261719 -27.36575195 409.5175 -28.06567383 408.79101562 C-29.86516005 406.1876031 -29.87900715 404.71493363 -29.56958008 401.61523438 C-23.69503874 398.58676007 -18.92854501 398.18730121 -12.37768555 398.23046875 C-10.87593277 398.22240959 -10.87593277 398.22240959 -9.34384155 398.21418762 C-7.17610473 398.20443061 -5.00832894 398.20145917 -2.84057236 398.20454407 C0.61044907 398.20904597 4.06096398 398.19494844 7.51193237 398.17614746 C14.85975323 398.13941101 22.20752084 398.12569256 29.55541992 398.11523438 C38.03015688 398.10308331 46.50464735 398.08105545 54.97927475 398.03523254 C58.34274291 398.02186391 61.70588311 398.0257989 65.06936646 398.03063965 C81.93333622 397.98720769 98.88918108 396.87647018 115.11791992 391.92773438 C115.97474365 391.67282227 116.83156738 391.41791016 117.71435547 391.15527344 C138.37239098 384.77314712 156.58288916 374.2858981 172.43041992 359.61523438 C173.01065918 359.08414062 173.59089844 358.55304688 174.1887207 358.00585938 C203.60633594 330.80469422 219.00589182 287.96136623 220.55664062 248.39477539 C221.58395192 201.97661128 212.96211052 154.9018863 180.53588867 119.79882812 C155.31834673 93.64557034 125.10654701 77.72527455 88.22002983 76.50941277 C84.35970321 76.45269897 80.49980939 76.42589024 76.63916016 76.40991211 C75.16001624 76.40031672 73.68087498 76.39030571 72.20173645 76.37991333 C68.2106782 76.35303796 64.21960833 76.33193515 60.22851062 76.31191134 C56.0484832 76.28994377 51.86849086 76.26260811 47.68849182 76.2358551 C39.78396691 76.1860731 31.87942237 76.14108092 23.9748593 76.09783274 C14.97117115 76.04833597 5.96751822 75.99346424 -3.03613579 75.93815315 C-21.54725113 75.82455578 -40.05839977 75.71766888 -58.56958008 75.61523438 C-59.6862793 70.89697266 -59.6862793 70.89697266 -58.63598633 68.36132812 C-54.77319717 62.43169594 -50.86121032 56.53631912 -46.93008423 50.65182495 C-45.9516039 49.18710042 -44.97343017 47.72217105 -43.99545288 46.2571106 C-40.28784761 40.70413763 -36.57243921 35.15647051 -32.85058594 29.61303711 C-31.53078433 27.64503827 -30.21309808 25.67561926 -28.89746094 23.70483398 C-26.97708535 20.82891034 -25.04948033 17.95795429 -23.12036133 15.08789062 C-22.53692459 14.2107692 -21.95348785 13.33364777 -21.35237122 12.4299469 C-20.7979686 11.60816452 -20.24356598 10.78638214 -19.67236328 9.93969727 C-19.19241409 9.2231044 -18.7124649 8.50651154 -18.2179718 7.76820374 C-17.67400253 7.05772385 -17.13003326 6.34724396 -16.56958008 5.61523438 C-15.91920776 4.71373154 -15.26883545 3.8122287 -14.59875488 2.88340759 C-9.96646148 -0.58514226 -5.6423728 -0.06779805 0 0 Z " fill="#F4F4F4" transform="translate(548.569580078125,276.384765625)"/>
<path d="M0 0 C9.32365348 7.26391826 17.25336645 15.67458132 24.6015625 24.90625 C27.42746176 28.40410576 30.35845591 31.79784049 33.3125 35.1875 C34.43233297 36.47392238 35.55212451 37.76038082 36.671875 39.046875 C37.22681641 39.68431641 37.78175781 40.32175781 38.35351562 40.97851562 C40.93637409 43.95355189 43.50056914 46.9444406 46.0625 49.9375 C46.55339111 50.51089111 47.04428223 51.08428223 47.55004883 51.67504883 C48.53885203 52.83030518 49.52754049 53.98565976 50.51611328 55.14111328 C53.00895521 58.05394042 55.50459434 60.96436922 58 63.875 C60.98964835 67.3621134 63.97875858 70.84967826 66.96484375 74.33984375 C73.7325892 82.24760752 80.5360904 90.12358766 87.35888672 97.98388672 C90.61349953 101.73429298 93.86517042 105.48725223 97.1159668 109.2409668 C99.86955863 112.41991359 102.62676724 115.59559756 105.390625 118.765625 C110.9039291 125.09571489 116.33695853 131.46496718 121.6171875 137.9921875 C124.5579982 141.55008634 127.5897744 145.02269281 130.625 148.5 C132.26357103 150.38978383 133.89960572 152.28169674 135.53320312 154.17578125 C136.82541129 155.67274676 138.12321132 157.16488139 139.421875 158.65625 C140.38867188 159.81640625 140.38867188 159.81640625 141.375 161 C141.91898438 161.64195312 142.46296875 162.28390625 143.0234375 162.9453125 C144.36050352 165.58735496 143.86640789 167.10808448 143 169.875 C140.9825076 171.8924924 136.8590214 171.05296282 134.09057617 171.06787109 C132.84642944 171.08013733 132.84642944 171.08013733 131.57714844 171.09265137 C128.8157626 171.11757762 126.05442881 171.13404916 123.29296875 171.1484375 C122.3490307 171.15376118 121.40509266 171.15908485 120.43255043 171.16456985 C115.4261519 171.19134621 110.41977856 171.2106975 105.41333008 171.22509766 C100.26323469 171.2416607 95.11378986 171.2863546 89.96393871 171.3374691 C85.98909357 171.37130459 82.01439878 171.38269349 78.03942299 171.38832474 C76.14297896 171.39500368 74.24654363 171.41013728 72.35024071 171.43421555 C57.90350377 171.60702697 46.51910191 170.15274754 35.65966797 159.7890625 C28.64770604 152.84626087 22.85469968 144.78662754 17 136.875 C16.39833008 136.06337402 15.79666016 135.25174805 15.17675781 134.41552734 C12.18252501 130.36954824 9.20136849 126.31418218 6.2265625 122.25390625 C2.38484781 117.02223006 -1.57400302 111.88786968 -5.54785156 106.75585938 C-14.40070164 95.28942411 -23.13792331 83.74170018 -31.69897461 72.0559082 C-37.48824059 64.17162024 -43.42685225 56.40351946 -49.3671875 48.6328125 C-52.93170671 43.96982821 -56.46463561 39.28478392 -59.9765625 34.58203125 C-61.44526084 32.61715104 -62.92002053 30.65679692 -64.3984375 28.69921875 C-64.80199463 28.16433838 -65.20555176 27.62945801 -65.62133789 27.07836914 C-66.73232083 25.60624273 -67.84462486 24.13511358 -68.95703125 22.6640625 C-76.48130478 12.39191853 -76.48130478 12.39191853 -76.33203125 4.99609375 C-75.72145387 1.09558177 -73.82188557 -1.44092745 -71 -4.125 C-68.13747923 -6.13311818 -65.17657088 -7.67331246 -62 -9.125 C-61.34902344 -9.42277344 -60.69804687 -9.72054687 -60.02734375 -10.02734375 C-39.15044964 -18.64388526 -17.72669757 -12.69801005 0 0 Z " fill="#F4F4F4" transform="translate(387,575.125)"/>
<path d="M0 0 C4.85782903 1.96380322 7.49365046 5.5422718 10.1875 9.9375 C12.29449396 15.28602314 12.14663385 20.96122879 12.14044189 26.62664795 C12.14341302 27.48226484 12.14638414 28.33788172 12.1494453 29.21942639 C12.15810017 32.07956248 12.15963782 34.93965656 12.16113281 37.79980469 C12.16576323 39.85340463 12.17078819 41.90700372 12.17617798 43.96060181 C12.18928175 49.53512001 12.19574291 55.10962618 12.20018864 60.68415737 C12.20312242 64.16880644 12.20722779 67.65345225 12.21169281 71.13809967 C12.22536195 82.04641159 12.23503166 92.95471602 12.2388947 103.86303592 C12.24337519 116.44479587 12.26092522 129.02644717 12.2898953 141.60817409 C12.31152568 151.34085714 12.3215997 161.07350965 12.32293582 170.80621648 C12.3239828 176.61583591 12.32986807 182.42535313 12.34775543 188.2349472 C12.36425966 193.70147916 12.36638013 199.16783231 12.35761642 204.63438034 C12.35684733 206.63621119 12.36117181 208.63805175 12.37107468 210.63985825 C12.47778237 233.56162048 12.47778237 233.56162048 7.0625 240.47265625 C6.381875 240.99730469 5.70125 241.52195312 5 242.0625 C4.319375 242.61035156 3.63875 243.15820312 2.9375 243.72265625 C-1.08992862 246.37783601 -5.32371533 246.59422402 -10 246 C-16.24692667 243.45887729 -19.17724617 240.0611683 -22 234 C-25.1471209 224.57013324 -24.28879653 214.09716928 -24.2746582 204.296875 C-24.27901039 202.30179657 -24.28419522 200.30671981 -24.29014587 198.31164551 C-24.3034907 192.91502516 -24.30411972 187.51847505 -24.30158257 182.12184143 C-24.30051007 177.60892045 -24.30540323 173.09601351 -24.310188 168.58309555 C-24.32126697 157.93429251 -24.32172926 147.28552476 -24.31567383 136.63671875 C-24.30963093 125.66558797 -24.32195683 114.69458533 -24.3432439 103.72347641 C-24.36087564 94.28794413 -24.36685888 84.85245259 -24.36360615 75.41690445 C-24.36179611 69.78843955 -24.36440196 64.16006613 -24.37832069 58.53161621 C-24.39092044 53.23902246 -24.38893455 47.94662826 -24.37590981 42.65403748 C-24.37354939 40.71670971 -24.37625945 38.77936781 -24.38453293 36.84205627 C-24.47907756 12.97489307 -24.47907756 12.97489307 -17 4 C-11.85338581 -0.77003266 -6.68088166 -0.83766406 0 0 Z " fill="#F2F2F2" transform="translate(561,388)"/>
<path d="M0 0 C5.18217559 1.80249586 7.63360624 6.25811097 10 11 C11.2803876 14.8263674 11.173617 18.71593488 11.20532227 22.70605469 C11.21522186 23.47717087 11.22512146 24.24828705 11.23532104 25.04277039 C11.26685078 27.58577427 11.29165968 30.12879682 11.31640625 32.671875 C11.33698314 34.43736246 11.35797981 36.20284507 11.37937927 37.96832275 C11.43452399 42.61086091 11.48396675 47.25344298 11.53222656 51.89605713 C11.58249711 56.63517149 11.63815417 61.37422225 11.69335938 66.11328125 C11.80084798 75.4087998 11.90231356 84.70437363 12 94 C12.37122482 93.48254715 12.74244965 92.9650943 13.12492371 92.43196106 C14.82508934 90.06410437 16.52775675 87.69805744 18.23046875 85.33203125 C18.81437378 84.51802856 19.39827881 83.70402588 19.99987793 82.86535645 C27.93881875 71.84354871 35.35437598 62.63864192 49 59 C52.65635806 58.58955691 56.26151949 58.57971071 59.9375 58.625 C60.87529297 58.61339844 61.81308594 58.60179687 62.77929688 58.58984375 C69.72126046 58.6187887 76.59946838 59.23398787 82.15625 63.75390625 C82.82140625 64.64916016 82.82140625 64.64916016 83.5 65.5625 C84.19609375 66.46162109 84.19609375 66.46162109 84.90625 67.37890625 C87.34601335 70.99498407 87.29006317 73.6490524 87 78 C85.21227527 82.70453876 83.00840557 85.95078468 79 89 C75.1909488 89.69035988 71.42530971 89.65406189 67.5625 89.625 C56.81319773 89.54273322 56.81319773 89.54273322 47.796875 94.98828125 C43.2743341 100.12360919 39.14544454 105.43540246 35.23022461 111.04101562 C31.23554251 116.74271655 27.03925768 122.28131348 22.8125 127.8125 C22.14726318 128.68366455 21.48202637 129.5548291 20.79663086 130.45239258 C11.90620377 142.06949719 11.90620377 142.06949719 8 147 C7.35647583 147.82346924 7.35647583 147.82346924 6.69995117 148.66357422 C3.37072091 152.1786819 0.0819949 152.39625982 -4.5 152.5625 C-9.78725476 152.31588175 -13.25860661 152.02919288 -17 148 C-20.31710006 141.61350541 -22.11108648 135.18528144 -22.14717102 127.98628235 C-22.15432632 127.00099045 -22.16148163 126.01569855 -22.16885376 125.00054932 C-22.17154266 123.930849 -22.17423157 122.86114868 -22.17700195 121.7590332 C-22.18357315 120.62344467 -22.19014435 119.48785614 -22.19691467 118.31785583 C-22.21661463 114.5621636 -22.22830294 110.8065113 -22.23828125 107.05078125 C-22.24235678 105.76600576 -22.2464323 104.48123028 -22.25063133 103.1575222 C-22.26933056 97.05783504 -22.28389944 90.95816778 -22.2922433 84.85845786 C-22.30200542 77.8396726 -22.32830521 70.82120356 -22.36874419 63.80252963 C-22.40265586 57.70552433 -22.41439748 51.60865097 -22.41844749 45.51155663 C-22.42331 42.92688032 -22.43491429 40.34220731 -22.45348549 37.75759315 C-22.47790315 34.13412109 -22.4769065 30.51146907 -22.4699707 26.88793945 C-22.48278076 25.82836029 -22.49559082 24.76878113 -22.50878906 23.67709351 C-22.46107515 16.80985436 -21.34771326 11.06529195 -18 5 C-12.38069676 -0.48551031 -7.58278809 -0.57228589 0 0 Z " fill="#F4F4F4" transform="translate(624,432)"/>
<path d="M0 0 C4.76605758 3.29084928 7.9035086 7.5771401 9.16471863 13.23274231 C9.80489871 18.21163066 9.78933403 23.13590649 9.80200195 28.15112305 C9.81185875 29.85231544 9.81185875 29.85231544 9.82191467 31.58787537 C9.84159126 35.3333239 9.85329751 39.07873244 9.86328125 42.82421875 C9.86735678 44.10682901 9.8714323 45.38943928 9.87563133 46.71091652 C9.89432271 52.80045753 9.90889409 58.88997866 9.9172433 64.97954243 C9.92700497 71.98132785 9.95330666 78.98279625 9.99374419 85.98447007 C10.02767788 92.0713292 10.03939919 98.15805622 10.04344749 104.24500465 C10.04830612 106.82327233 10.05989929 109.40153679 10.07848549 111.97974205 C10.10293375 115.59571693 10.10190099 119.2108714 10.0949707 122.8269043 C10.10778076 123.88131714 10.12059082 124.93572998 10.13378906 126.02209473 C10.0744675 134.55936604 8.57194446 143.06158862 2.5625 149.5 C-1.33669035 152.41386579 -5.10994287 152.48876541 -9.85546875 152.203125 C-14.3244783 151.5102553 -16.43878204 149.74871796 -19.5625 146.625 C-24.09811041 139.58698385 -23.6766682 131.55214701 -23.68139648 123.46484375 C-23.68972 122.24757599 -23.69804352 121.03030823 -23.70661926 119.77615356 C-23.72650349 116.45794348 -23.73734375 113.13998344 -23.74244571 109.82173538 C-23.74610344 107.74449848 -23.75235053 105.6672852 -23.7594471 103.59005737 C-23.78388753 96.33183749 -23.79698318 89.07368861 -23.80053711 81.81542969 C-23.80417527 75.06694206 -23.8341041 68.31890835 -23.87594169 61.5705595 C-23.91069495 55.75968985 -23.92608636 49.94897045 -23.92678314 44.13799763 C-23.92757381 40.67464256 -23.9362154 37.21175156 -23.96478081 33.74850464 C-23.99593671 29.88554457 -23.9868777 26.02323327 -23.97436523 22.16015625 C-23.98919952 21.02329376 -24.00403381 19.88643127 -24.01931763 18.71511841 C-23.95553752 11.79325019 -22.9204437 7.15272782 -18.375 1.8125 C-13.32422342 -2.80535287 -6.10616004 -2.14846372 0 0 Z " fill="#F2F2F2" transform="translate(499.375,434.1875)"/>
<path d="M0 0 C0.33 0 0.66 0 1 0 C1.00423194 1.08467214 1.00846388 2.16934427 1.01282406 3.28688526 C1.11590901 29.65045373 1.22464336 56.01399426 1.33933926 82.37751484 C1.39467328 95.12658577 1.44815558 107.8756595 1.49731445 120.62475586 C1.54015408 131.73378172 1.58643153 142.84278696 1.63687855 153.95178097 C1.66348125 159.83667078 1.6883344 165.72155648 1.70907402 171.60647011 C1.72863304 177.14099562 1.75277466 182.67548189 1.78049088 188.20997238 C1.7898652 190.2453649 1.7975391 192.28076604 1.80341911 194.31617165 C1.81167378 197.08711123 1.82594873 199.85795537 1.84178162 202.62886047 C1.84275972 203.44111204 1.84373783 204.25336361 1.84474558 205.09022886 C1.86860389 208.31946753 1.97144111 210.91432334 3 214 C2.01 214 1.02 214 0 214 C-0.88536153 208.71092825 -1.12871342 203.65606009 -1.08229065 198.29969788 C-1.07906152 197.44842156 -1.07583239 196.59714525 -1.07250541 195.72007269 C-1.06048708 192.88112457 -1.04110273 190.04227586 -1.02172852 187.20336914 C-1.01157971 185.16295586 -1.00188669 183.12254026 -0.99261475 181.0821228 C-0.96619408 175.55169007 -0.93340233 170.02131133 -0.89946485 164.49092031 C-0.86506201 158.7080315 -0.8365211 152.92511383 -0.80735779 147.14219666 C-0.75126222 136.19532913 -0.68989651 125.24849775 -0.62663645 114.30166954 C-0.5548642 101.83743661 -0.48896853 89.37317478 -0.42356598 76.90890706 C-0.28891526 51.2725672 -0.14688629 25.63627247 0 0 Z " fill="#E9E8E9" transform="translate(539,408)"/>
<path d="M0 0 C0.33 0 0.66 0 1 0 C1.83270136 4.37287945 2.14325472 8.53461041 2.18945312 12.98339844 C2.19774643 13.65405838 2.20603973 14.32471832 2.21458435 15.01570129 C2.23188289 16.46103405 2.24707675 17.90639326 2.26036072 19.35176849 C2.28151492 21.63800595 2.3085219 23.92410933 2.33703613 26.21026611 C2.40660684 31.88231654 2.4663727 37.55446194 2.52606201 43.22662354 C2.57696228 48.0322492 2.63174543 52.83779889 2.69187927 57.64331818 C2.7184674 59.89791112 2.73926517 62.15251126 2.7598877 64.40716553 C2.77648456 65.78284044 2.79335586 67.15851207 2.81054688 68.53417969 C2.82307495 69.73741882 2.83560303 70.94065796 2.84851074 72.18035889 C2.80952708 74.9512078 2.80952708 74.9512078 4 77 C2.68 78.32 1.36 79.64 0 81 C0 54.27 0 27.54 0 0 Z " fill="#01010A" transform="translate(635,446)"/>
<path d="M0 0 C-1 1 -1 1 -3.6875 1.0625 C-5.89583333 1.02083333 -8.10416667 0.97916667 -10.3125 0.9375 C-12.918828 0.68866942 -12.918828 0.68866942 -14 2 C-15.99952758 2.04346799 -18.00039988 2.039992 -20 2 C-20.99 2 -21.98 2 -23 2 C-23 1.34 -23 0.68 -23 0 C-5.49644381 -3.66429587 -5.49644381 -3.66429587 0 0 Z " fill="#E6E6E8" transform="translate(356,563)"/>
<path d="M0 0 C9.13338455 -0.28994872 17.96301675 0.8258212 27 2 C27 2.33 27 2.66 27 3 C21.39696789 3.71975709 16.5824422 4.09221695 11 3 C9.60437488 2.97589131 8.20814717 2.97720359 6.8125 3 C3 3 3 3 0 2 C0 1.34 0 0.68 0 0 Z " fill="#EAEBEC" transform="translate(347,503)"/>
<path d="M0 0 C2.97 0 5.94 0 9 0 C9 0.66 9 1.32 9 2 C9.91523438 1.96519531 10.83046875 1.93039062 11.7734375 1.89453125 C12.96195312 1.86746094 14.15046875 1.84039063 15.375 1.8125 C16.55835938 1.77769531 17.74171875 1.74289062 18.9609375 1.70703125 C20.46527344 1.85205078 20.46527344 1.85205078 22 2 C22.99 3.485 22.99 3.485 24 5 C15.75 4.34 7.5 3.68 -1 3 C-0.67 2.01 -0.34 1.02 0 0 Z " fill="#EFF0F0" transform="translate(345,531)"/>
<path d="M0 0 C5.61 0 11.22 0 17 0 C17 0.99 17 1.98 17 3 C11.72 3 6.44 3 1 3 C0.67 2.01 0.34 1.02 0 0 Z " fill="#0C111A" transform="translate(340,559)"/>
<path d="M0 0 C2 2 2 2 2.265625 4.35546875 C2.23466804 9.96641689 1.88360072 14.70237298 0 20 C-0.66 19.67 -1.32 19.34 -2 19 C-1.34 12.73 -0.68 6.46 0 0 Z " fill="#14161D" transform="translate(854,542)"/>
<path d="M0 0 C-0.58970326 5.54321063 -1.70633841 10.88590286 -4 16 C-4.66 16.33 -5.32 16.66 -6 17 C-5.68806536 15.27073126 -5.37542638 13.54158956 -5.0625 11.8125 C-4.88847656 10.84957031 -4.71445312 9.88664063 -4.53515625 8.89453125 C-4.35855469 7.93933594 -4.18195312 6.98414063 -4 6 C-3.85433594 5.07574219 -3.70867188 4.15148437 -3.55859375 3.19921875 C-3.28208984 2.11060547 -3.28208984 2.11060547 -3 1 C-1 0 -1 0 0 0 Z " fill="#EAEBEC" transform="translate(769,549)"/>
<path d="M0 0 C2.60444348 -0.05394705 5.20776998 -0.09364469 7.8125 -0.125 C8.55048828 -0.14175781 9.28847656 -0.15851563 10.04882812 -0.17578125 C13.91246426 -0.21074628 15.70903668 -0.19397555 19 2 C12.5510809 3.31909709 6.51244208 2.69508823 0 2 C0 1.34 0 0.68 0 0 Z " fill="#141821" transform="translate(423,489)"/>
<path d="M0 0 C1.125 3.75 1.125 3.75 0 6 C0.66 6 1.32 6 2 6 C1.67 7.65 1.34 9.3 1 11 C1.66 11 2.32 11 3 11 C3 13.97 3 16.94 3 20 C-1.82604293 14.75430117 -1.23190223 7.72516454 -1 1 C-0.67 0.67 -0.34 0.34 0 0 Z " fill="#EAEBEC" transform="translate(768,472)"/>
<path d="M0 0 C0 0.66 0 1.32 0 2 C-5.75 3.125 -5.75 3.125 -8 2 C-8 2.66 -8 3.32 -8 4 C-11.3 4 -14.6 4 -18 4 C-14.14700424 1.11025318 -13.41753536 0.61553215 -9 0.3125 C-8.154375 0.24675781 -7.30875 0.18101562 -6.4375 0.11328125 C-4.29364842 0.01364712 -2.14616554 0 0 0 Z " fill="#EBEAEC" transform="translate(646,673)"/>
<path d="M0 0 C5.24972347 4.10037573 9.20962911 8.52964787 13 14 C11.68 14 10.36 14 9 14 C7.1484375 11.953125 7.1484375 11.953125 5.375 9.25 C4.78460938 8.36828125 4.19421875 7.4865625 3.5859375 6.578125 C2.25993918 4.42256123 1.07906626 2.28633841 0 0 Z " fill="#EEEEEE" transform="translate(415,606)"/>
<path d="M0 0 C2 2 2 2 2.4375 5.3125 C3.0048835 9.03201405 4.08013112 10.85839638 6 14 C5.67 14.99 5.34 15.98 5 17 C0.73739445 10.81234678 -0.11992241 7.31526682 0 0 Z " fill="#E5E6E7" transform="translate(311,578)"/>
<path d="M0 0 C7.26 0 14.52 0 22 0 C22 0.33 22 0.66 22 1 C13.585 1.495 13.585 1.495 5 2 C5 2.33 5 2.66 5 3 C3.35 3 1.7 3 0 3 C0 2.01 0 1.02 0 0 Z " fill="#D6D7DA" transform="translate(378,506)"/>
<path d="M0 0 C1.63001953 0.01353516 1.63001953 0.01353516 3.29296875 0.02734375 C4.12441406 0.03894531 4.95585938 0.05054688 5.8125 0.0625 C4.8225 1.5475 4.8225 1.5475 3.8125 3.0625 C0.9921875 3.35546875 0.9921875 3.35546875 -2.3125 3.25 C-3.95605469 3.20939453 -3.95605469 3.20939453 -5.6328125 3.16796875 C-6.47585938 3.13316406 -7.31890625 3.09835937 -8.1875 3.0625 C-8.5175 2.4025 -8.8475 1.7425 -9.1875 1.0625 C-5.90230525 -0.03256492 -3.45086585 -0.03710608 0 0 Z " fill="#0F131F" transform="translate(628.1875,671.9375)"/>
<path d="M0 0 C4.52615993 3.67832017 8.39424999 7.41086363 12 12 C9 12 9 12 7.24609375 10.390625 C6.64925781 9.68421875 6.05242188 8.9778125 5.4375 8.25 C4.83808594 7.55390625 4.23867188 6.8578125 3.62109375 6.140625 C2.11754827 4.15522037 1.02421999 2.2624561 0 0 Z " fill="#101218" transform="translate(522,687)"/>
<path d="M0 0 C4.03810445 1.34603482 5.47295076 3.65336723 8 7 C8 7.66 8 8.32 8 9 C7.01 9 6.02 9 5 9 C3.95107762 7.36368108 2.95093297 5.69514137 2 4 C1.34 3.67 0.68 3.34 0 3 C0 2.01 0 1.02 0 0 Z " fill="#EAECEC" transform="translate(494,698)"/>
<path d="M0 0 C3.34373475 0.55728913 6.03312999 1.35173889 9 3 C8.67 3.99 8.34 4.98 8 6 C6.66402348 5.19185349 5.331275 4.37836819 4 3.5625 C3.2575 3.11003906 2.515 2.65757812 1.75 2.19140625 C1.1725 1.79824219 0.595 1.40507813 0 1 C0 0.67 0 0.34 0 0 Z " fill="#E8E8EA" transform="translate(369,566)"/>
<path d="M0 0 C3.93673644 1.31224548 6.22719294 2.91910327 9 6 C3.50847458 5.38983051 3.50847458 5.38983051 1.125 3.5625 C0 2 0 2 0 0 Z " fill="#EDEEEE" transform="translate(758,312)"/>
<path d="M0 0 C1.12894876 0.93274109 2.25300876 1.87140122 3.375 2.8125 C4.00148438 3.33457031 4.62796875 3.85664062 5.2734375 4.39453125 C7 6 7 6 9 9 C6 9 6 9 4.39453125 7.5390625 C3.61142578 6.59160156 3.61142578 6.59160156 2.8125 5.625 C2.28269531 4.99851562 1.75289062 4.37203125 1.20703125 3.7265625 C0 2 0 2 0 0 Z " fill="#15171D" transform="translate(540,706)"/>
<path d="M0 0 C0.33 0 0.66 0 1 0 C1 3.63 1 7.26 1 11 C0.01 11 -0.98 11 -2 11 C-2 9.02 -2 7.04 -2 5 C-1.67 5 -1.34 5 -1 5 C-0.67 3.35 -0.34 1.7 0 0 Z " fill="#E9E9EA" transform="translate(771,523)"/>
<path d="M0 0 C0.99 0.103125 1.98 0.20625 3 0.3125 C3.66 1.3025 4.32 2.2925 5 3.3125 C1.7 2.9825 -1.6 2.6525 -5 2.3125 C-3 0.3125 -3 0.3125 0 0 Z " fill="#E8E9EA" transform="translate(364,532.6875)"/>
<path d="M0 0 C3.3 0 6.6 0 10 0 C9.01 0.495 9.01 0.495 8 1 C8 1.66 8 2.32 8 3 C5.125 3.1875 5.125 3.1875 2 3 C1.34 2.01 0.68 1.02 0 0 Z " fill="#161C2A" transform="translate(659,275)"/>
<path d="M0 0 C0.99 0.33 1.98 0.66 3 1 C0.03 3.475 0.03 3.475 -3 6 C-3.66 5.67 -4.32 5.34 -5 5 C-3.35 3.35 -1.7 1.7 0 0 Z " fill="#DFE0E1" transform="translate(732,625)"/>
<path d="M0 0 C0.33 0 0.66 0 1 0 C1.33 2.97 1.66 5.94 2 9 C1.01 9.33 0.02 9.66 -1 10 C-1.125 3.375 -1.125 3.375 0 0 Z " fill="#E5E4E7" transform="translate(851,459)"/>
<path d="M0 0 C1.32 0.33 2.64 0.66 4 1 C4 1.66 4 2.32 4 3 C5.32 3.66 6.64 4.32 8 5 C7.34 5.66 6.68 6.32 6 7 C3.95880212 5.38405168 1.95927063 3.7143618 0 2 C0 1.34 0 0.68 0 0 Z " fill="#ECECED" transform="translate(714,380)"/>
</svg>
